<?xml version="1.0" encoding="utf-8"?>
<!-- Generator: Adobe Illustrator 17.0.2, SVG Export Plug-In . SVG Version: 6.00 Build 0)  -->
<!DOCTYPE svg PUBLIC "-//W3C//DTD SVG 1.1//EN" "http://www.w3.org/Graphics/SVG/1.1/DTD/svg11.dtd">
<svg version="1.1" id="Layer_1" xmlns="http://www.w3.org/2000/svg" xmlns:xlink="http://www.w3.org/1999/xlink" x="0px" y="0px"
	 width="32px" height="32px" viewBox="0 0 32 32" enable-background="new 0 0 32 32" xml:space="preserve">
<g>
	<defs>
		<rect id="SVGID_1_" y="0" width="32" height="32"/>
	</defs>
	<clipPath id="SVGID_2_">
		<use xlink:href="#SVGID_1_"  overflow="visible"/>
	</clipPath>
	<path clip-path="url(#SVGID_2_)" fill-rule="evenodd" clip-rule="evenodd" fill="#fff" d="M28.26,13.514h-2.781
		c0.203,0.787,0.322,1.608,0.322,2.458c0,5.429-4.4,9.83-9.829,9.83c-5.428,0-9.829-4.4-9.829-9.83c0-0.85,0.12-1.672,0.323-2.458
		H3.685V27.03c0,0.678,0.55,1.228,1.23,1.228H27.03c0.68,0,1.23-0.55,1.23-1.228V13.514z M28.26,4.914
		c0-0.678-0.55-1.229-1.23-1.229h-3.685c-0.679,0-1.229,0.55-1.229,1.229V8.6c0,0.678,0.55,1.229,1.229,1.229h3.685
		c0.68,0,1.23-0.55,1.23-1.229V4.914z M15.973,9.829c-3.393,0-6.143,2.75-6.143,6.143c0,3.393,2.75,6.144,6.143,6.144
		s6.144-2.751,6.144-6.144C22.117,12.579,19.366,9.829,15.973,9.829 M28.26,31.945H3.685C1.65,31.945,0,30.295,0,28.258V3.685
		C0,1.65,1.65,0,3.685,0H28.26c2.035,0,3.685,1.65,3.685,3.685v24.573C31.946,30.295,30.296,31.945,28.26,31.945"/>
</g>
</svg>
