<?xml version="1.0" encoding="utf-8"?>
<!-- Generator: Adobe Illustrator 18.0.0, SVG Export Plug-In . SVG Version: 6.00 Build 0)  -->
<!DOCTYPE svg PUBLIC "-//W3C//DTD SVG 1.1//EN" "http://www.w3.org/Graphics/SVG/1.1/DTD/svg11.dtd">
<svg version="1.1" xmlns="http://www.w3.org/2000/svg" xmlns:xlink="http://www.w3.org/1999/xlink" x="0px" y="0px" width="32px"
	 height="32px" viewBox="0 0 32 32" enable-background="new 0 0 32 32" xml:space="preserve">
<g id="Layer_1" display="none">
	<g display="inline">
		<path fill="#3C5B8E" d="M31.1,29.4c0,0.9-0.8,1.7-1.7,1.7H2.6c-0.9,0-1.7-0.8-1.7-1.7V2.6c0-0.9,0.8-1.7,1.7-1.7h26.7
			c0.9,0,1.7,0.8,1.7,1.7V29.4z"/>
		<rect x="3.1" y="24.6" fill="#6E81A9" width="25.9" height="4.3"/>
		<path fill="#FFFFFF" d="M18.2,28.9V17.8h-2.9v-4h2.9c0,0,0-1.6,0-3.4c0-2.7,1.7-5.1,5.7-5.1c1.6,0,2.8,0.2,2.8,0.2l-0.1,3.7
			c0,0-1.2,0-2.5,0c-1.4,0-1.7,0.7-1.7,1.8c0,0.9,0-1.9,0,2.9h4.3l-0.2,4h-4.1v11.1H18.2z"/>
	</g>
</g>
<g id="Layer_2">
	<g>
		<rect x="0.9" y="0.9" fill="#55acee" width="30.2" height="30.2"/>
		<path fill="#FFFFFF" d="M26.1,9.8c-0.7,0.3-1.5,0.6-2.4,0.6c0.9-0.5,1.5-1.3,1.8-2.3c-0.8,0.5-1.7,0.8-2.6,1
			c-0.8-0.8-1.8-1.3-3-1.3c-2.3,0-4.1,1.8-4.1,4.1c0,0.3,0,0.6,0.1,0.9c-3.4-0.2-6.5-1.8-8.5-4.3C7,9.2,6.8,9.9,6.8,10.7
			c0,1.4,0.7,2.7,1.8,3.4c-0.7,0-1.3-0.2-1.9-0.5c0,0,0,0,0,0.1c0,2,1.4,3.7,3.3,4c-0.3,0.1-0.7,0.1-1.1,0.1c-0.3,0-0.5,0-0.8-0.1
			c0.5,1.6,2,2.8,3.9,2.9c-1.4,1.1-3.2,1.8-5.1,1.8c-0.3,0-0.7,0-1-0.1c1.8,1.2,4,1.9,6.3,1.9c7.6,0,11.7-6.3,11.7-11.7
			c0-0.2,0-0.4,0-0.5C24.8,11.3,25.5,10.6,26.1,9.8z"/>
	</g>
</g>
</svg>
